<svg xmlns="http://www.w3.org/2000/svg" width="512" height="512" viewBox="0 0 512 512" role="img">
  <defs>
    <linearGradient id="atlas-gradient" x1="0%" y1="0%" x2="100%" y2="100%">
      <stop offset="0%" stop-color="#0ea5e9" />
      <stop offset="50%" stop-color="#6366f1" />
      <stop offset="100%" stop-color="#a855f7" />
    </linearGradient>
    <linearGradient id="atlas-glow" x1="30%" y1="20%" x2="70%" y2="80%">
      <stop offset="0%" stop-color="rgba(255,255,255,0.9)" />
      <stop offset="100%" stop-color="rgba(255,255,255,0)" />
    </linearGradient>
    <filter id="soft-shadow" x="-20%" y="-20%" width="140%" height="140%">
      <feDropShadow dx="0" dy="12" stdDeviation="18" flood-color="#0ea5e9" flood-opacity="0.35" />
    </filter>
  </defs>

  <rect x="32" y="32" width="448" height="448" rx="128" fill="url(#atlas-gradient)" filter="url(#soft-shadow)" />
  <rect x="64" y="64" width="384" height="384" rx="112" fill="url(#atlas-glow)" opacity="0.65" />

  <path
    d="M256 120c-12.4 0-24.1 7.1-28.9 18.5l-96 232.7c-5.5 13.3 4.1 28.3 18.4 28.3h45c10.2 0 19.4-6.3 23-15.9l18.8-50.6h84.4l18.8 50.6c3.6 9.6 12.7 15.9 23 15.9h45c14.3 0 23.9-15 18.4-28.3l-96-232.7C280.1 127.1 268.4 120 256 120zm0 78.6 29.8 80.4h-59.7l29.9-80.4z"
    fill="#f8fafc"
  />

  <circle cx="256" cy="206" r="22" fill="#c4d4ff" opacity="0.55" />
</svg>

